<svg width="68" height="213" viewBox="0 0 68 213" fill="none" xmlns="http://www.w3.org/2000/svg">
<g id="Camada 2">
<g id="Layer 3">
<path id="Vector" d="M-56.3175 135.341C-52.8031 139.981 -48.5447 143.99 -44.3488 147.997C-42.1649 150.08 -40.0043 152.184 -37.867 154.308C-35.5302 156.611 -33.7046 159.266 -32.0373 162.08C-30.3664 164.904 -28.8852 167.835 -27.6037 170.855C-26.9761 172.331 -26.3849 173.827 -25.8049 175.337C-25.6467 175.742 -25.4931 176.151 -25.3442 176.564C-25.5383 178.267 -25.7736 179.966 -26.1135 181.647C-26.4533 183.328 -26.8732 185.04 -26.9643 186.77C-27.0217 187.43 -26.9671 188.095 -26.8027 188.736C-27.1753 191.137 -27.408 193.558 -27.6048 195.979C-27.7422 197.665 -27.8796 199.351 -28.0025 201.039C-28.0846 202.066 -26.4914 202.346 -26.4049 201.311C-26.0223 196.586 -25.6979 191.886 -24.8476 187.258C-24.6575 186.861 -24.4732 186.463 -24.2777 186.07C-23.8265 185.174 -23.1074 184.461 -22.4889 183.69C-21.9047 182.913 -21.1921 182.241 -20.3816 181.704C-19.679 181.299 -18.9053 181.033 -18.1022 180.919C-15.9505 180.569 -13.8273 180.79 -11.679 180.917C-9.53072 181.044 -7.44724 180.972 -5.39301 180.334C2.36282 177.929 5.37948 169.246 6.37442 161.976C6.70738 159.545 6.822 157.079 6.93706 154.629C7.08465 151.946 7.08222 149.257 6.92982 146.574C6.87447 145.67 5.45736 145.62 5.3461 146.52C5.28195 146.867 5.16235 147.202 4.99188 147.512C4.81102 147.89 4.65581 148.275 4.4972 148.663C4.12002 149.562 3.72009 150.455 3.30664 151.339C2.51529 153.039 1.67851 154.707 0.728051 156.323C-0.222396 157.939 -1.2015 159.425 -2.25328 160.916C-3.03646 162.006 -3.82211 163.11 -4.94864 163.864C-6.295 164.751 -7.91489 165.119 -9.45049 165.484C-11.0942 165.87 -12.7744 166.172 -14.3111 166.894C-15.684 167.564 -16.9619 168.411 -18.1114 169.416C-18.7666 169.964 -19.3837 170.557 -19.9585 171.189C-18.906 168.359 -17.8196 165.54 -16.7749 162.72C-15.1142 158.23 -13.3984 153.749 -11.7551 149.238C-11.634 149.231 -11.5186 149.184 -11.4268 149.105C-11.3351 149.026 -11.2719 148.918 -11.2471 148.8C-10.4123 146.109 -9.41941 143.471 -8.27354 140.897C-8.06522 140.569 -7.86321 140.242 -7.667 139.914C-6.91906 138.628 -6.51787 137.166 -5.72351 135.905C-4.98073 134.719 -3.78261 134.001 -2.68447 133.186C-1.464 132.284 -0.40169 131.152 0.69909 130.111C1.83971 129.028 2.78709 127.781 3.8398 126.618C4.89252 125.455 6.08174 124.631 7.35198 123.77C8.62221 122.91 9.77594 121.821 11.0139 120.886C12.3094 119.951 13.5351 118.923 14.6813 117.811C15.7619 116.73 16.7676 115.58 17.8061 114.465C18.9292 113.257 20.1136 112.11 21.3081 110.974C23.6839 108.787 25.9337 106.467 28.0467 104.025C30.144 101.575 32.0428 98.9614 33.7252 96.2102C35.3597 93.4726 36.45 90.4545 37.3995 87.4214C37.9131 85.7907 38.3154 84.1291 38.6746 82.4572C39.0052 80.9355 39.2604 79.3831 39.6569 77.8786C39.6707 77.7974 39.7015 77.7221 39.724 77.6424C39.7253 77.6287 39.7276 77.6152 39.7309 77.6018L39.7427 77.5322C39.8122 77.3174 39.8845 77.103 39.9535 76.891C40.1261 76.3685 40.2957 75.8456 40.4514 75.3172C40.7368 74.3427 41.0122 73.3038 40.9538 72.2767C40.9317 71.8464 40.7965 71.4294 40.5618 71.0675C40.2156 70.5374 39.4876 70.7058 39.2081 71.1892C38.445 72.512 37.9596 73.9775 37.1394 75.2667C36.2909 76.522 35.306 77.6799 34.2028 78.7193C32.0441 80.8666 29.6479 82.7587 27.5062 84.9297C25.3395 87.1591 23.2835 89.4938 21.2457 91.8794C19.3399 94.1014 17.5949 96.456 16.0239 98.9253C14.424 101.46 13.1884 104.137 11.9623 106.864C10.706 109.765 9.25748 112.58 7.6265 115.289C4.35873 120.565 -0.144276 124.932 -3.58265 130.086C-4.43715 131.372 -5.2475 132.686 -6.01369 134.027C-6.60827 134.681 -7.08998 135.428 -7.4392 136.24C-6.37097 132.444 -5.46373 128.6 -4.71747 124.706C-4.08549 121.431 -3.576 118.138 -2.90964 114.872C-2.37017 112.228 -1.80166 109.589 -1.34012 106.93C-1.26946 106.905 -1.2077 106.86 -1.16249 106.8C-1.11728 106.74 -1.0906 106.669 -1.08577 106.594C-0.84406 104.699 -0.711747 102.78 -0.367387 100.897C0.0114901 99.6011 0.372941 98.3024 0.789089 97.0161C0.817885 96.9267 0.824819 96.8317 0.809313 96.7391C1.18441 95.7291 1.60499 94.7328 2.05507 93.7564C2.1433 93.5716 2.23445 93.3872 2.3251 93.2058C2.79224 92.2136 3.31095 91.2465 3.87913 90.3084C4.15853 89.8608 4.45728 89.4224 4.72414 88.9607C4.90069 88.7113 5.04688 88.4418 5.15962 88.1579L5.2073 88.0884C7.06075 85.587 9.13382 83.2555 11.402 81.1216C16.3809 76.364 22.2956 72.5352 26.2932 66.8171C27.3329 65.3266 28.3773 63.8608 29.5175 62.447C30.5995 61.0982 31.5771 59.6691 32.4417 58.172L33.0139 57.1806C33.0887 57.1262 33.1513 57.0568 33.1979 56.9769C33.2444 56.897 33.2738 56.8084 33.2841 56.7165L34.2756 55.0001C34.6946 54.5501 35.1428 54.1281 35.6173 53.7369C36.8051 52.7459 37.9307 51.6638 39.1798 50.7339C40.5664 49.6991 42.0301 48.7729 43.4595 47.8021C44.889 46.8313 46.317 45.6932 47.7988 44.7134C50.6769 42.8169 53.7426 41.1879 56.6324 39.2933C59.4547 37.4439 62.1241 35.3687 63.7879 32.3706C64.7216 30.6771 65.3193 28.8161 65.9003 26.9821C66.5829 24.8849 67.1233 22.7457 66.9693 20.5241C66.9197 19.7789 66.0101 19.6271 65.549 20.0885C64.5384 21.0918 64.3005 22.5607 63.4634 23.686C62.4416 24.999 61.2377 26.1601 59.8879 27.1343C57.0069 29.3107 53.8537 31.0322 50.85 32.9641C48.0206 34.752 45.4243 36.8832 43.1204 39.3089C40.96 41.6554 39.0109 44.1874 37.2959 46.8756C35.5089 49.6141 33.879 52.4479 32.2496 55.2788C31.4305 56.7024 30.6611 58.1852 29.7149 59.5306C28.6943 60.9796 27.4987 62.2974 26.4683 63.7507C25.4088 65.2349 24.4348 66.7783 23.2405 68.159C22.0735 69.5014 20.8254 70.7713 19.5031 71.9616C16.9725 74.2573 14.2724 76.3542 11.7443 78.6533C7.05407 82.9261 2.87314 87.7718 0.181158 93.5629C-0.0499648 94.0604 -0.264638 94.5668 -0.473506 95.0741C-0.574408 92.0025 -0.860681 88.9396 -1.33077 85.9021C-1.51107 84.6783 -1.72294 83.4819 -1.93865 82.2729C-1.54086 79.8405 -0.818277 77.4725 0.209833 75.2321C2.23225 70.6008 5.12497 66.3174 6.21175 61.3181C6.22309 61.2514 6.23493 61.1819 6.24627 61.1152C6.28582 61.1616 6.33628 61.1974 6.39312 61.2195C6.44996 61.2416 6.51139 61.2493 6.57192 61.2419C6.63245 61.2344 6.69017 61.2121 6.73989 61.1769C6.78961 61.1417 6.82979 61.0947 6.85681 61.0401C6.97885 60.7251 6.9905 60.378 6.88987 60.0554C7.57392 59.3138 8.1895 58.5121 8.7291 57.6599C9.54977 56.3499 10.3739 55.0196 11.0993 53.6546C12.6216 50.8383 13.9913 47.8826 14.801 44.7751C15.2262 43.3017 15.4072 41.7688 15.3371 40.2369C15.1901 38.73 14.8713 37.2446 14.3868 35.8097C13.5215 33.0435 12.4956 30.3603 12.2216 27.4561C12.074 25.8119 12.1379 24.1557 12.4116 22.528C12.5427 21.6079 12.7394 20.6984 13.0003 19.8063C13.2067 19.1375 13.6234 18.4627 13.4566 17.7393C13.4348 17.5735 13.3504 17.4223 13.2206 17.3165C13.0908 17.2107 12.9255 17.1583 12.7584 17.1701C12.2643 17.1934 11.9124 17.5929 11.6038 17.9311C11.2349 18.3426 10.7906 18.6876 10.3883 19.0845C9.54823 19.9349 8.80893 20.8791 8.18503 21.8983C6.95079 23.8909 5.96687 26.0276 5.2554 28.2604C3.59602 33.2875 3.1315 38.6522 3.60844 43.9116C3.72455 45.2189 3.91348 46.5187 4.17434 47.8051C4.42435 49.0408 4.77329 50.2396 5.06501 51.4585C5.36651 52.6583 5.51922 53.8905 5.51971 55.1273C5.4808 56.3539 5.37242 57.5773 5.19507 58.7916C4.87035 61.3389 4.17052 63.8241 3.11821 66.1669C2.07979 68.5107 0.843095 70.7552 -0.236921 73.08C-1.15795 75.0255 -1.91164 77.0456 -2.48986 79.1187C-2.66395 78.1863 -2.83481 77.2524 -3.00243 76.3171C-3.53957 73.3085 -3.8595 70.2354 -4.83431 67.3223C-5.76697 64.5655 -7.36086 62.1466 -8.67245 59.5968C-9.39471 58.2508 -9.91124 56.8046 -10.2049 55.3062C-10.4649 53.866 -10.5447 52.4027 -10.6589 50.9485C-11.1829 44.5954 -13.8672 38.5726 -14.0403 32.1777C-14.2231 26.2614 -11.0767 20.7326 -8.1196 15.8428C-7.38998 14.6346 -6.6623 13.4261 -5.93656 12.2172C-5.52375 11.5477 -6.67187 10.8124 -7.10161 11.4761C-10.2168 16.2943 -13.5052 21.1815 -14.9978 26.7918C-16.6383 32.9198 -14.6598 38.9448 -13.273 44.9169C-12.8828 46.6826 -12.5991 48.47 -12.4233 50.2695C-12.5842 49.6679 -12.7756 49.0749 -12.9967 48.4926C-13.5895 46.9933 -14.4429 45.6101 -15.5174 44.4067C-16.767 42.9681 -18.1181 41.6166 -19.4207 40.2257C-20.6306 38.9413 -21.9776 37.7929 -23.4377 36.8009C-24.9531 35.7107 -26.6283 34.8611 -28.4039 34.2825C-30.146 33.7534 -31.9509 33.4702 -33.6993 32.9609C-35.329 32.5088 -36.8472 31.7244 -38.1582 30.6571C-39.4408 29.5697 -40.551 28.2946 -41.4509 26.8753C-42.4666 25.2799 -43.2792 23.5645 -43.8697 21.7687C-44.1658 20.8921 -44.4077 19.9948 -44.666 19.1067C-44.9244 18.2186 -45.1889 17.2966 -45.1289 16.3643C-45.1055 16.2004 -45.146 16.0337 -45.242 15.8986C-45.338 15.7636 -45.4822 15.6703 -45.6449 15.6381C-45.8096 15.6117 -45.978 15.6507 -46.114 15.747C-46.25 15.8432 -46.3427 15.9889 -46.3721 16.1527C-46.6099 18.3405 -46.9958 20.5209 -47.0728 22.7121C-47.1485 24.6383 -47.0476 26.5675 -46.7713 28.4756C-46.2333 32.1466 -45.0337 35.8287 -42.7498 38.7946C-40.5739 41.6048 -37.6525 43.6172 -34.606 45.3854C-32.7657 46.4747 -30.8608 47.4513 -28.9018 48.3097C-26.9248 49.1423 -24.875 49.7906 -22.7786 50.2465C-20.5268 50.749 -18.2502 51.193 -16.071 51.9635C-15.1715 52.2806 -14.167 52.6126 -13.4983 53.32C-12.978 53.9137 -12.5496 54.5818 -12.2276 55.3021C-12.2536 55.4868 -12.2062 55.6743 -12.0955 55.8247C-11.9848 55.9751 -11.8196 56.0763 -11.6353 56.1068C-11.121 58.1958 -10.2225 60.0997 -9.15903 62.0524C-7.65617 64.778 -6.30956 67.4381 -5.65395 70.5057C-4.99833 73.5733 -4.5735 76.715 -4.00031 79.8103C-3.72919 81.2733 -3.46246 82.7445 -3.21755 84.2209C-3.21622 85.5057 -3.11474 86.7886 -2.91401 88.0578C-2.81859 88.6915 -2.70817 89.3247 -2.59724 89.9551C-2.5864 90.0304 -2.55987 90.1026 -2.51935 90.167C-2.47883 90.2315 -2.42524 90.2867 -2.36202 90.3292C-2.06341 92.9796 -1.94811 95.6474 -2.01697 98.3134C-2.06926 98.6207 -2.12204 98.9309 -2.17432 99.2382C-2.18114 99.2842 -2.17898 99.3312 -2.16796 99.3764C-2.27971 99.8049 -2.37985 100.235 -2.47467 100.67C-2.5409 100.748 -2.57873 100.847 -2.58209 100.95L-2.58767 101.193C-2.71801 101.836 -2.82559 102.486 -2.91866 103.138C-2.9359 103.238 -2.91931 103.34 -2.87155 103.428C-2.82379 103.517 -2.74762 103.587 -2.65521 103.628C-2.66064 103.66 -2.66656 103.694 -2.67248 103.729C-2.80462 104.804 -2.91304 105.881 -3.06113 106.944C-3.13298 107.472 -3.21695 108 -3.30333 108.526C-3.97389 112.063 -4.77858 115.58 -5.40508 119.121C-6.55243 125.706 -7.88556 132.223 -9.83883 138.626C-9.83883 138.626 -9.84277 138.649 -9.84475 138.661C-9.83192 138.586 -9.8186 138.507 -9.80528 138.429C-9.48185 135.29 -9.5025 132.125 -9.86687 128.99C-10.2754 125.788 -10.8875 122.615 -11.6996 119.491C-12.4713 116.35 -13.3413 113.225 -14.317 110.141C-15.2475 107.149 -16.4722 104.256 -17.9731 101.504C-19.4977 98.7483 -21.3086 96.1643 -22.8195 93.3986C-24.2639 90.7074 -25.3807 87.8536 -26.1462 84.8981C-26.9632 81.8478 -27.5315 78.7414 -28.302 75.6812C-29.0109 72.7241 -29.9894 69.8378 -31.2253 67.0584C-31.7996 65.7609 -32.4975 64.5214 -33.3093 63.357C-34.2004 62.1656 -35.2277 61.0818 -36.3703 60.1278C-36.9408 59.634 -37.5011 59.1329 -38.0269 58.5871C-38.5093 58.0844 -39.2918 58.6433 -39.2553 59.2371C-39.1657 60.6424 -38.6536 62.0241 -38.4117 63.3956C-38.1413 64.9331 -37.9228 66.4945 -37.7082 68.0433C-37.27 71.1007 -36.7666 74.1494 -36.1979 77.1892C-35.0474 83.2851 -33.7393 89.3511 -32.582 95.4422C-32.0166 98.4079 -31.4868 101.424 -30.5283 104.293C-29.5904 106.972 -28.3768 109.546 -26.907 111.975C-25.433 114.484 -23.7746 116.875 -22.2148 119.336C-20.6549 121.797 -19.3354 124.3 -17.9157 126.794C-17.207 128.039 -16.5114 129.291 -15.9114 130.595C-15.3114 131.899 -14.7791 133.32 -14.2573 134.698C-13.2074 137.468 -12.2621 140.362 -11.8081 143.296C-11.7943 143.391 -11.7782 143.489 -11.7591 143.588C-11.8725 144.255 -11.9862 144.923 -12.0999 145.591C-13.5511 149.693 -15.1184 153.758 -16.645 157.829C-18.9306 163.919 -21.221 170.02 -23.3885 176.154C-23.5602 175.791 -23.6481 175.395 -23.6455 174.995C-23.3953 172.547 -23.3419 170.083 -23.4858 167.627C-23.7601 164.178 -24.4546 160.774 -25.554 157.491C-26.5777 154.303 -27.9137 151.224 -29.5426 148.297C-31.2529 145.225 -33.3128 142.36 -35.6814 139.759C-36.8924 138.477 -38.1986 137.287 -39.589 136.201C-40.9602 135.073 -42.2848 133.917 -43.6205 132.756C-46.2948 130.433 -48.9958 128.11 -51.312 125.422C-52.3383 124.251 -53.2384 122.976 -53.9973 121.618C-54.7214 120.229 -55.2739 118.758 -55.6428 117.237C-56.4998 113.965 -57.0611 110.624 -58.2695 107.45C-58.7146 106.181 -59.4091 105.013 -60.3122 104.015C-61.3797 102.894 -62.7327 102.309 -64.179 101.833C-64.6011 101.706 -65.014 101.55 -65.4147 101.366C-65.7841 101.145 -66.1946 101 -66.6214 100.94C-66.774 100.915 -66.9308 100.934 -67.0725 100.996C-67.2143 101.058 -67.3348 101.16 -67.4193 101.289C-67.5038 101.419 -67.5486 101.57 -67.5483 101.724C-67.548 101.879 -67.5026 102.03 -67.4175 102.159C-65.8319 104.732 -65.2602 107.678 -64.5541 110.572C-63.8481 113.466 -63.5436 116.366 -63.1282 119.283C-62.7129 122.199 -62.1399 125.19 -60.8699 127.897C-59.6158 130.529 -58.0901 133.024 -56.3175 135.341ZM1.84796 124.922C3.83292 122.548 5.86431 120.2 7.6386 117.66C9.41512 115.067 10.9793 112.336 12.316 109.492C13.6337 106.754 14.7956 103.948 16.3169 101.314C19.2873 96.1517 23.3006 91.6414 27.3622 87.3392C28.4536 86.1945 29.5624 85.0707 30.7223 83.9974C31.8255 82.9771 32.9818 81.9956 34.0883 80.9907C35.2082 79.9862 36.2602 78.9086 37.2374 77.7652C37.7924 77.0963 38.2916 76.3831 38.7299 75.6328C38.6033 76.0259 38.4737 76.4185 38.3451 76.8231C37.9861 78.0575 37.6913 79.3096 37.4617 80.5744C37.1181 82.2072 36.7682 83.842 36.3327 85.4532C35.5375 88.5178 34.4061 91.4853 32.959 94.302C31.4891 97.0735 29.5312 99.6397 27.5625 102.076C25.5279 104.542 23.3342 106.873 20.9953 109.054C19.8222 110.17 18.6442 111.279 17.5086 112.437C16.4226 113.549 15.4009 114.724 14.3328 115.855C13.3052 116.968 12.1814 117.988 10.9745 118.904C10.3181 119.389 9.65017 119.872 9.01453 120.393C8.37889 120.915 7.87314 121.41 7.26968 121.865C6.66621 122.32 6.02947 122.725 5.41203 123.157C7.38033 121.162 9.24867 119.07 11.1677 117.031C13.4148 114.645 15.5777 112.192 17.7281 109.724C18.7946 108.497 19.849 107.254 20.8261 105.956C21.8032 104.657 22.6342 103.304 23.4715 101.932C25.4402 98.6871 27.5101 95.4986 29.2346 92.1261C29.4417 91.7169 28.822 91.4593 28.5976 91.8298C26.8648 94.7236 25.1538 97.6301 23.3964 100.511C22.526 101.938 21.6909 103.385 20.7184 104.744C19.7854 106.047 18.7678 107.285 17.7237 108.503C15.5994 110.975 13.449 113.443 11.2223 115.815C10.0681 117.047 8.90335 118.272 7.75692 119.511C6.61048 120.751 5.54796 121.954 4.35917 123.109C3.0989 124.35 1.76712 125.538 0.614544 126.884C-0.321216 128.001 -1.15107 129.203 -1.86433 130.474C-2.14615 130.76 -2.42846 131.049 -2.72331 131.324C-2.93755 131.529 -3.16675 131.717 -3.39836 131.901C-1.78987 129.473 -0.0380072 127.142 1.84796 124.922ZM37.3689 49.7486C40.7273 44.3096 44.6723 39.1643 49.9724 35.4874C52.8901 33.4634 56.0205 31.7708 58.9648 29.7841C60.4343 28.8205 61.819 27.7339 63.104 26.5361C63.6974 25.9667 64.2423 25.349 64.7332 24.6895C64.8305 24.5569 64.9191 24.4228 65.0023 24.2849C64.8477 24.9476 64.6588 25.6015 64.4504 26.2462C63.9593 27.9165 63.343 29.5476 62.607 31.1257C61.9258 32.5141 61.0036 33.771 59.8831 34.8382C58.5985 36.0022 57.2139 37.0512 55.7452 37.9731C52.8584 39.8681 49.7941 41.4884 46.9116 43.3932C45.4473 44.3581 44.0804 45.4529 42.6335 46.4386C41.7613 47.0329 40.8799 47.6107 40.0081 48.2022C40.9362 47.0392 41.9239 45.9249 42.9672 44.8637C44.2014 43.7221 45.4966 42.648 46.8472 41.6462C48.2684 40.5308 49.6761 39.3893 51.078 38.2468C51.8029 37.6572 52.5008 37.0511 53.1838 36.4097C53.8621 35.7339 54.5933 35.1132 55.3706 34.5536C55.6881 34.3391 55.3509 33.897 55.0301 34.0781C53.5435 34.9109 52.4165 36.2642 51.1151 37.3433C49.6811 38.5341 48.223 39.7088 46.7614 40.868C45.4655 41.8973 44.1372 42.8883 42.9238 44.0122C41.6361 45.204 40.5396 46.5894 39.405 47.9176C38.9272 48.4776 38.457 49.0449 38.0058 49.6243C37.6342 49.9111 37.2701 50.2061 36.9137 50.5093C37.0719 50.2469 37.219 49.9975 37.3689 49.7486ZM5.48557 46.6859C4.58013 41.5979 4.69361 36.3819 5.81944 31.3392C6.34312 29.0405 7.12401 26.8081 8.14741 24.6838C8.6296 23.6669 9.19542 22.6916 9.83906 21.7681C10.4085 20.9795 11.0506 20.2459 11.7571 19.5769C11.537 20.3378 11.3568 21.1096 11.2172 21.8892C10.9336 23.3522 10.7976 24.84 10.8112 26.3302C10.862 29.1935 11.6164 31.9438 12.511 34.6434C13.0001 36.0156 13.3953 37.4192 13.694 38.8447C13.9551 40.2515 13.9518 41.6943 13.6843 43.0996C13.1243 46.1452 11.8671 49.0544 10.5082 51.806C9.74057 53.3667 8.87523 54.869 8.02004 56.3819C7.64525 57.0397 7.23736 57.6782 6.79791 58.2948C6.78012 58.079 6.77705 57.8622 6.78876 57.646C6.82837 57.2112 6.91347 56.7818 7.04264 56.3648C7.28937 55.5119 7.62561 54.6951 7.81234 53.8261C7.99244 52.9082 8.17396 51.9995 8.41216 51.0914C8.66638 50.2027 8.86505 49.2991 9.00704 48.3858C9.10345 47.4518 9.11347 46.5109 9.03698 45.575C8.99391 44.6162 8.98136 43.6536 8.92958 42.6932C8.89752 42.2493 8.85916 41.8073 8.79997 41.3647C8.74079 40.9221 8.60235 40.4183 8.50452 39.9393C8.06264 37.7761 8.47655 35.4841 8.97425 33.3495C9.08322 32.8849 8.35123 32.7603 8.24227 33.225C8.01331 34.196 7.83615 35.1785 7.71157 36.1683C7.56586 37.1171 7.52846 38.0794 7.60008 39.0367C7.69899 39.9484 7.97329 40.8482 8.07313 41.7719C8.17298 42.6957 8.20252 43.6463 8.23112 44.5848C8.25973 45.5233 8.37393 46.5032 8.31967 47.4545C8.25311 48.3816 8.09684 49.3 7.85303 50.1969C7.62164 51.1001 7.3612 51.9984 7.184 52.9168C7.12333 53.2733 7.06315 53.627 6.97683 53.9762C6.98325 53.9385 6.98965 53.9008 6.97573 53.8597C6.80936 51.4123 5.9064 49.0782 5.48557 46.6859ZM-14.0271 51.2285C-15.8361 50.3898 -17.8282 49.8897 -19.7663 49.4585C-21.8656 48.991 -23.9957 48.6345 -26.041 47.9554C-28.0222 47.281 -29.9441 46.4441 -31.7872 45.4534C-34.959 43.7891 -38.1328 41.9605 -40.6343 39.3603C-43.1359 36.7602 -44.5924 33.4638 -45.3058 29.9808C-45.9612 26.8186 -46.0991 23.5716 -45.7142 20.3661C-45.6322 20.6396 -45.5502 20.913 -45.4759 21.1792C-45.0232 22.8386 -44.3949 24.4454 -43.6016 25.9724C-41.9961 29.0078 -39.645 31.8597 -36.4901 33.36C-33.1711 34.933 -29.3357 34.8757 -26.1338 36.6971C-24.6113 37.5615 -23.1755 38.57 -21.8463 39.7086C-20.4463 40.9133 -19.2038 42.3059 -17.9267 43.6358C-16.596 45.0196 -15.2785 46.428 -14.476 48.1931C-14.4072 48.351 -14.3481 48.5132 -14.2818 48.6677C-14.5378 48.5408 -14.7861 48.3989 -15.0254 48.2428C-15.4701 47.9405 -15.9104 47.6299 -16.3658 47.3377C-17.2546 46.7611 -18.1994 46.2756 -19.1857 45.8884C-21.1339 45.1303 -23.1785 44.6572 -25.0817 43.7755C-26.9148 42.9041 -28.6517 41.8438 -30.264 40.6119C-32.0902 39.2422 -33.8099 37.7385 -35.5525 36.2638C-35.6296 36.2031 -35.7273 36.1747 -35.8249 36.1847C-35.9225 36.1948 -36.0124 36.2424 -36.0753 36.3175C-36.1383 36.3926 -36.1694 36.4892 -36.1621 36.5869C-36.1548 36.6846 -36.1097 36.7757 -36.0362 36.8407C-32.9366 39.474 -29.8746 42.2232 -26.2118 44.0933C-24.3064 45.0678 -22.2742 45.6313 -20.2634 46.3374C-19.2508 46.6862 -18.2759 47.1359 -17.3535 47.6797C-16.4605 48.2104 -15.6527 48.8908 -14.7223 49.3593C-14.386 49.5152 -14.0765 49.7229 -13.8048 49.9748C-13.6374 50.5193 -13.4895 51.0724 -13.3536 51.6265C-13.5671 51.4761 -13.7923 51.343 -14.0271 51.2285ZM-11.7964 136.799C-12.684 133.961 -13.7991 131.198 -15.1311 128.539C-15.8052 127.231 -16.5447 125.956 -17.2688 124.679C-17.9929 123.401 -18.6328 122.156 -19.3546 120.917C-20.8257 118.409 -22.4739 116.011 -24.0561 113.576C-25.6351 111.195 -27.0077 108.685 -28.1589 106.071C-29.3058 103.361 -29.9694 100.534 -30.5535 97.6606C-31.1695 94.6236 -31.7263 91.5728 -32.3481 88.5349C-32.9699 85.4969 -33.6241 82.4207 -34.239 79.36C-34.854 76.2993 -35.4172 73.2863 -35.9038 70.2266C-36.3693 67.2361 -36.7015 64.1997 -37.3889 61.249C-36.8015 61.745 -36.2407 62.2716 -35.7087 62.8265C-34.8049 63.8235 -34.0333 64.9322 -33.4127 66.1254C-32.0252 68.721 -31.0686 71.5653 -30.2757 74.3878C-28.5947 80.3174 -27.8731 86.5103 -25.1958 92.1173C-23.8762 94.9011 -22.1423 97.4632 -20.533 100.09C-18.9117 102.704 -17.5503 105.469 -16.4684 108.347C-15.3678 111.311 -14.5058 114.378 -13.6797 117.427C-12.8535 120.476 -12.0726 123.615 -11.5292 126.762C-10.9768 129.808 -10.7522 132.904 -10.8591 135.998L-10.8735 136.294C-11.0806 135.828 -11.2454 135.345 -11.3661 134.85C-11.5599 134.021 -11.7643 133.191 -11.9794 132.359C-12.8573 128.982 -13.9529 125.655 -15.0946 122.352C-16.2363 119.05 -17.4186 115.863 -18.8548 112.728C-20.291 109.593 -22.1224 106.603 -23.6022 103.461C-25.3173 99.8223 -26.7583 96.0483 -28.1325 92.2679C-28.1669 92.1766 -28.2362 92.1026 -28.3252 92.0623C-28.4142 92.022 -28.5156 92.0186 -28.607 92.0529C-28.6984 92.0872 -28.7725 92.1563 -28.8128 92.2451C-28.8531 92.3339 -28.8565 92.4351 -28.8221 92.5264C-27.6228 95.8595 -26.3654 99.1667 -24.9232 102.407C-23.5225 105.574 -21.7413 108.544 -20.2213 111.66C-18.7629 114.739 -17.4749 117.894 -16.3633 121.113C-15.2141 124.354 -14.1111 127.62 -13.1801 130.932C-12.9076 131.895 -12.6518 132.862 -12.4126 133.833C-12.2502 134.65 -12.0304 135.454 -11.7549 136.239C-11.5483 136.781 -11.2386 137.35 -10.973 137.932C-11.0096 138.341 -11.0491 138.748 -11.0979 139.158C-11.3158 138.366 -11.5406 137.579 -11.7964 136.799ZM-21.8065 176.307C-21.4906 175.593 -21.1301 174.901 -20.7273 174.232C-19.9138 172.892 -18.8911 171.691 -17.6978 170.673C-16.5816 169.666 -15.3376 168.81 -13.9976 168.126C-10.9596 166.677 -7.37825 166.866 -4.4286 165.182C-3.25921 164.51 -2.34987 163.504 -1.57014 162.435C-0.477254 160.965 0.547015 159.442 1.51374 157.888C2.62639 156.105 3.63868 154.26 4.5459 152.364C4.85594 151.719 5.15726 151.072 5.44888 150.43C5.44807 151.535 5.42547 152.64 5.38107 153.744C5.28805 155.959 5.18434 158.185 4.94844 160.397C4.52553 164.358 3.6273 168.372 1.77336 171.925C0.1694 174.993 -2.29626 177.592 -5.62927 178.719C-9.67459 180.098 -13.8954 178.679 -18.0318 179.294C-19.0048 179.411 -19.9508 179.692 -20.8302 180.124C-20.9383 180.18 -21.0417 180.243 -21.1591 180.301C-20.2756 179.357 -19.305 178.498 -18.26 177.736C-16.517 176.5 -14.5972 175.532 -12.5652 174.866C-10.4807 174.156 -8.42646 173.501 -6.51751 172.382C-4.7483 171.334 -3.1045 170.089 -1.61787 168.67C0.094106 167.077 1.61306 165.289 2.90796 163.343C3.14593 162.98 2.66194 162.54 2.38572 162.899C1.1314 164.533 -0.212284 166.097 -1.63924 167.583C-3.10565 169.056 -4.73773 170.355 -6.50303 171.454C-7.41669 172.022 -8.37789 172.512 -9.37595 172.915C-10.4128 173.336 -11.4756 173.662 -12.5311 174.016C-14.5478 174.66 -16.4653 175.58 -18.2294 176.748C-19.8602 177.864 -21.3279 179.2 -22.5902 180.719C-22.6552 180.276 -22.7386 179.835 -22.8293 179.402C-22.4936 178.365 -22.1488 177.334 -21.7949 176.309L-21.8065 176.307ZM-60.296 125.086C-60.7431 123.702 -61.0858 122.287 -61.321 120.852C-61.8293 117.902 -62.0768 114.913 -62.699 111.982C-63.0107 110.512 -63.3962 109.054 -63.77 107.597C-64.117 106.133 -64.5631 104.694 -65.1053 103.289C-65.124 103.241 -65.1456 103.193 -65.1673 103.145L-64.6021 103.336C-63.8613 103.556 -63.1524 103.871 -62.4932 104.274C-61.5173 104.945 -60.7445 105.871 -60.2588 106.951C-58.8915 109.823 -58.3071 113.046 -57.5982 116.116C-57.2538 117.782 -56.7536 119.412 -56.1043 120.985C-55.4862 122.369 -54.7148 123.68 -53.8044 124.893C-51.7408 127.66 -49.1562 130.036 -46.5723 132.31C-45.2349 133.49 -43.8921 134.662 -42.544 135.826C-41.2629 136.939 -39.9185 137.961 -38.6393 139.086C-37.3381 140.274 -36.1388 141.569 -35.0538 142.956C-33.936 144.33 -32.909 145.775 -31.9793 147.283C-30.271 150.068 -28.8433 153.016 -27.7172 156.082C-26.5276 159.212 -25.6945 162.464 -25.2336 165.779C-25.1094 166.77 -25.0285 167.764 -24.9909 168.761C-25.0029 168.726 -25.0154 168.694 -25.0245 168.66C-25.3149 167.802 -25.5544 166.926 -25.8133 166.059C-26.0526 165.207 -26.3368 164.368 -26.6648 163.546C-27.0491 162.67 -27.4815 161.815 -27.9599 160.987C-28.8891 159.298 -29.9367 157.691 -31.0139 156.1C-33.177 152.916 -35.4415 149.802 -37.8682 146.814C-39.1055 145.303 -40.3875 143.844 -41.6335 142.35C-42.8796 140.855 -44.1101 139.339 -45.3464 137.822C-48.0775 134.446 -50.8092 131.073 -53.7676 127.891C-54.0843 127.539 -54.5428 128.108 -54.2324 128.444C-51.5897 131.304 -49.1302 134.327 -46.69 137.358C-45.4842 138.861 -44.2784 140.363 -43.0556 141.854C-41.8328 143.345 -40.5286 144.832 -39.2888 146.328C-36.8431 149.274 -34.5663 152.352 -32.3973 155.501C-31.307 157.085 -30.2201 158.672 -29.2531 160.331C-28.2764 161.92 -27.4777 163.612 -26.8714 165.375C-26.5605 166.34 -26.3063 167.323 -25.9993 168.294C-25.6923 169.265 -25.3243 170.246 -25.0266 171.237L-24.9767 171.4C-24.9898 171.899 -25.0059 172.398 -25.0316 172.882C-25.0566 172.819 -25.0845 172.754 -25.109 172.687C-26.3178 169.614 -27.7032 166.612 -29.2581 163.698C-30.8273 160.8 -32.5345 157.905 -34.6618 155.372C-35.7452 154.134 -36.8921 152.954 -38.0977 151.834C-39.1727 150.792 -40.2235 149.731 -41.3014 148.688C-45.4778 144.655 -49.815 140.758 -53.5352 136.274C-55.4171 134.035 -57.0812 131.622 -58.505 129.069C-59.2226 127.799 -59.8221 126.465 -60.296 125.086Z" fill="#712609"/>
</g>
</g>
</svg>
